<svg width="32" height="32" viewBox="0 0 32 32" fill="none" xmlns="http://www.w3.org/2000/svg">
  <rect width="32" height="32" rx="6" fill="#2e9e74"/>
  <path d="M11 8C9.89543 8 9 8.89543 9 10V22C9 23.1046 9.89543 24 11 24H21C22.1046 24 23 23.1046 23 22V13.5C23 13.2239 22.8881 12.9604 22.6929 12.7652L18.2348 8.30714C18.0396 8.11193 17.7761 8 17.5 8H11Z" fill="white"/>
  <path d="M18 8.5V12C18 13.1046 18.8954 14 20 14H23.5" stroke="#2e9e74" stroke-width="1.5" stroke-linecap="round"/>
  <path d="M12 16L20 16" stroke="#2e9e74" stroke-width="1.5" stroke-linecap="round"/>
  <path d="M12 19L18 19" stroke="#2e9e74" stroke-width="1.5" stroke-linecap="round"/>
</svg>
